# xmcd
#
# Track frame offsets:
#	150
#	12523
#	43483
#	55745
#	76117
#	100187
#	118162
#	138885
#	161745
#	180060
#	204500
#	225757
#
# Disc length: 3420 seconds
#
# Revision: 1
# Processed by: cddbd v1.4PL0 Copyright (c) Steve Scherf et al.
# Submitted via: audiograbber 1.82.02
#
DISCID=8e0d5a0c
DTITLE=Putumayo - Mali To Memphis
DYEAR=1999
DGENRE=Blues
TTITLE0=Guy Davis - You don't Know My Mind
TTITLE1=Lobi Traore - Dounouya 
TTITLE2=John Lee Hooker - I'm In The Mood
TTITLE3=Boubacar Traore - Kar Kar Madison
TTITLE4=Amadou and Mariam - Mon Amour, Ma Cherie
TTITLE5=Muddy Waters - My Home Is The Delta
TTITLE6=Taj Mahal - Queen Bee
TTITLE7=Rokia Traore - Sabali
TTITLE8=Baba Djan - Sabari
TTITLE9=Habib Koite - Sirata
TTITLE10=Jessie Mae Hemphill - Standing in My Doorway Crying
TTITLE11=Eric Bibb - Don't Ever Let Nobody Drag Your Spirit Down
EXTD=
EXTT0=
EXTT1=
EXTT2=
EXTT3=
EXTT4=
EXTT5=
EXTT6=
EXTT7=
EXTT8=
EXTT9=
EXTT10=
EXTT11=
PLAYORDER=
